<mxfile host="app.diagrams.net" modified="2024-06-24T00:22:23.459Z" agent="Mozilla/5.0 (Windows NT 10.0; Win64; x64) AppleWebKit/537.36 (KHTML, like Gecko) Chrome/126.0.0.0 Safari/537.36" etag="kOy9D_fTJ8WPNBhXPSVS" version="24.6.2" type="device">
  <diagram id="C5RBs43oDa-KdzZeNtuy" name="Page-1">
    <mxGraphModel dx="5185" dy="2753" grid="1" gridSize="10" guides="1" tooltips="1" connect="1" arrows="1" fold="1" page="1" pageScale="1" pageWidth="827" pageHeight="1169" math="0" shadow="0">
      <root>
        <mxCell id="WIyWlLk6GJQsqaUBKTNV-0" />
        <mxCell id="WIyWlLk6GJQsqaUBKTNV-1" parent="WIyWlLk6GJQsqaUBKTNV-0" />
        <mxCell id="2ie_r9YeU4_pC4aYm68A-33" value="" style="edgeStyle=orthogonalEdgeStyle;rounded=0;orthogonalLoop=1;jettySize=auto;html=1;exitX=0.5;exitY=1;exitDx=0;exitDy=0;" edge="1" parent="WIyWlLk6GJQsqaUBKTNV-1" source="2ie_r9YeU4_pC4aYm68A-36" target="2ie_r9YeU4_pC4aYm68A-32">
          <mxGeometry relative="1" as="geometry">
            <mxPoint x="364.9999999999998" y="115.71000000000001" as="sourcePoint" />
          </mxGeometry>
        </mxCell>
        <mxCell id="2ie_r9YeU4_pC4aYm68A-39" value="" style="edgeStyle=orthogonalEdgeStyle;rounded=0;orthogonalLoop=1;jettySize=auto;html=1;" edge="1" parent="WIyWlLk6GJQsqaUBKTNV-1" source="2ie_r9YeU4_pC4aYm68A-32" target="2ie_r9YeU4_pC4aYm68A-37">
          <mxGeometry relative="1" as="geometry" />
        </mxCell>
        <mxCell id="2ie_r9YeU4_pC4aYm68A-40" value="no" style="edgeLabel;html=1;align=center;verticalAlign=middle;resizable=0;points=[];" vertex="1" connectable="0" parent="2ie_r9YeU4_pC4aYm68A-39">
          <mxGeometry x="-0.2468" y="-1" relative="1" as="geometry">
            <mxPoint as="offset" />
          </mxGeometry>
        </mxCell>
        <mxCell id="2ie_r9YeU4_pC4aYm68A-396" style="edgeStyle=orthogonalEdgeStyle;rounded=0;orthogonalLoop=1;jettySize=auto;html=1;" edge="1" parent="WIyWlLk6GJQsqaUBKTNV-1" source="2ie_r9YeU4_pC4aYm68A-32" target="2ie_r9YeU4_pC4aYm68A-395">
          <mxGeometry relative="1" as="geometry" />
        </mxCell>
        <mxCell id="2ie_r9YeU4_pC4aYm68A-398" value="yes" style="edgeLabel;html=1;align=center;verticalAlign=middle;resizable=0;points=[];" vertex="1" connectable="0" parent="2ie_r9YeU4_pC4aYm68A-396">
          <mxGeometry x="-0.9183" relative="1" as="geometry">
            <mxPoint as="offset" />
          </mxGeometry>
        </mxCell>
        <mxCell id="2ie_r9YeU4_pC4aYm68A-32" value="_is_illegal_action(action)" style="rhombus;whiteSpace=wrap;html=1;rounded=0;" vertex="1" parent="WIyWlLk6GJQsqaUBKTNV-1">
          <mxGeometry x="285" y="140" width="150" height="150" as="geometry" />
        </mxCell>
        <mxCell id="2ie_r9YeU4_pC4aYm68A-38" value="" style="edgeStyle=orthogonalEdgeStyle;rounded=0;orthogonalLoop=1;jettySize=auto;html=1;" edge="1" parent="WIyWlLk6GJQsqaUBKTNV-1" source="2ie_r9YeU4_pC4aYm68A-36" target="2ie_r9YeU4_pC4aYm68A-32">
          <mxGeometry relative="1" as="geometry" />
        </mxCell>
        <mxCell id="2ie_r9YeU4_pC4aYm68A-36" value="&lt;font style=&quot;font-size: 20px;&quot;&gt;TopOptEnv.step(action)&lt;/font&gt;" style="rounded=1;whiteSpace=wrap;html=1;" vertex="1" parent="WIyWlLk6GJQsqaUBKTNV-1">
          <mxGeometry x="230" width="260" height="85.71" as="geometry" />
        </mxCell>
        <mxCell id="2ie_r9YeU4_pC4aYm68A-344" style="edgeStyle=orthogonalEdgeStyle;rounded=0;orthogonalLoop=1;jettySize=auto;html=1;entryX=0;entryY=0.5;entryDx=0;entryDy=0;dashed=1;strokeWidth=2;" edge="1" parent="WIyWlLk6GJQsqaUBKTNV-1" source="2ie_r9YeU4_pC4aYm68A-37" target="2ie_r9YeU4_pC4aYm68A-41">
          <mxGeometry relative="1" as="geometry" />
        </mxCell>
        <mxCell id="2ie_r9YeU4_pC4aYm68A-352" value="" style="edgeStyle=orthogonalEdgeStyle;rounded=0;orthogonalLoop=1;jettySize=auto;html=1;" edge="1" parent="WIyWlLk6GJQsqaUBKTNV-1" source="2ie_r9YeU4_pC4aYm68A-37" target="2ie_r9YeU4_pC4aYm68A-318">
          <mxGeometry relative="1" as="geometry" />
        </mxCell>
        <mxCell id="2ie_r9YeU4_pC4aYm68A-37" value="remove_node(action)" style="rounded=0;whiteSpace=wrap;html=1;" vertex="1" parent="WIyWlLk6GJQsqaUBKTNV-1">
          <mxGeometry x="285" y="340" width="150" height="30" as="geometry" />
        </mxCell>
        <mxCell id="2ie_r9YeU4_pC4aYm68A-308" value="" style="edgeStyle=orthogonalEdgeStyle;rounded=0;orthogonalLoop=1;jettySize=auto;html=1;" edge="1" parent="WIyWlLk6GJQsqaUBKTNV-1" source="2ie_r9YeU4_pC4aYm68A-41" target="2ie_r9YeU4_pC4aYm68A-43">
          <mxGeometry relative="1" as="geometry" />
        </mxCell>
        <mxCell id="2ie_r9YeU4_pC4aYm68A-41" value="&lt;font style=&quot;font-size: 14px;&quot;&gt;x, y = actions_to_coordinates(action)&lt;/font&gt;" style="rounded=0;whiteSpace=wrap;html=1;" vertex="1" parent="WIyWlLk6GJQsqaUBKTNV-1">
          <mxGeometry x="710" y="100" width="240" height="30" as="geometry" />
        </mxCell>
        <mxCell id="2ie_r9YeU4_pC4aYm68A-43" value="design_space[x, y design] = density" style="rounded=0;whiteSpace=wrap;html=1;" vertex="1" parent="WIyWlLk6GJQsqaUBKTNV-1">
          <mxGeometry x="710" y="170" width="240" height="30" as="geometry" />
        </mxCell>
        <mxCell id="2ie_r9YeU4_pC4aYm68A-84" value="design_space" style="swimlane;childLayout=stackLayout;resizeParent=1;resizeParentMax=0;startSize=20;html=1;" vertex="1" parent="WIyWlLk6GJQsqaUBKTNV-1">
          <mxGeometry x="670" y="229.99999999999997" width="320" height="120" as="geometry" />
        </mxCell>
        <mxCell id="2ie_r9YeU4_pC4aYm68A-85" value="design" style="swimlane;startSize=20;html=1;" vertex="1" parent="2ie_r9YeU4_pC4aYm68A-84">
          <mxGeometry y="20" width="80" height="100" as="geometry" />
        </mxCell>
        <mxCell id="2ie_r9YeU4_pC4aYm68A-90" value="" style="shape=table;html=1;whiteSpace=wrap;startSize=0;container=1;collapsible=0;childLayout=tableLayout;columnLines=0;rowLines=0;fontSize=16;strokeColor=default;" vertex="1" parent="2ie_r9YeU4_pC4aYm68A-85">
          <mxGeometry y="20" width="80" height="80" as="geometry" />
        </mxCell>
        <mxCell id="2ie_r9YeU4_pC4aYm68A-91" value="" style="shape=tableRow;horizontal=0;startSize=0;swimlaneHead=0;swimlaneBody=0;top=0;left=0;bottom=0;right=0;collapsible=0;dropTarget=0;fillColor=none;points=[[0,0.5],[1,0.5]];portConstraint=eastwest;fontSize=16;strokeColor=inherit;" vertex="1" parent="2ie_r9YeU4_pC4aYm68A-90">
          <mxGeometry width="80" height="20" as="geometry" />
        </mxCell>
        <mxCell id="2ie_r9YeU4_pC4aYm68A-92" value="1" style="shape=partialRectangle;html=1;whiteSpace=wrap;connectable=0;fillColor=none;top=0;left=0;bottom=0;right=0;overflow=hidden;fontSize=12;strokeColor=inherit;" vertex="1" parent="2ie_r9YeU4_pC4aYm68A-91">
          <mxGeometry width="20" height="20" as="geometry">
            <mxRectangle width="20" height="20" as="alternateBounds" />
          </mxGeometry>
        </mxCell>
        <mxCell id="2ie_r9YeU4_pC4aYm68A-93" value="d" style="shape=partialRectangle;html=1;whiteSpace=wrap;connectable=0;fillColor=none;top=0;left=0;bottom=0;right=0;overflow=hidden;fontSize=12;strokeColor=inherit;" vertex="1" parent="2ie_r9YeU4_pC4aYm68A-91">
          <mxGeometry x="20" width="20" height="20" as="geometry">
            <mxRectangle width="20" height="20" as="alternateBounds" />
          </mxGeometry>
        </mxCell>
        <mxCell id="2ie_r9YeU4_pC4aYm68A-94" value="d" style="shape=partialRectangle;html=1;whiteSpace=wrap;connectable=0;fillColor=none;top=0;left=0;bottom=0;right=0;overflow=hidden;fontSize=12;strokeColor=inherit;" vertex="1" parent="2ie_r9YeU4_pC4aYm68A-91">
          <mxGeometry x="40" width="20" height="20" as="geometry">
            <mxRectangle width="20" height="20" as="alternateBounds" />
          </mxGeometry>
        </mxCell>
        <mxCell id="2ie_r9YeU4_pC4aYm68A-222" value="d" style="shape=partialRectangle;html=1;whiteSpace=wrap;connectable=0;fillColor=none;top=0;left=0;bottom=0;right=0;overflow=hidden;fontSize=12;strokeColor=inherit;" vertex="1" parent="2ie_r9YeU4_pC4aYm68A-91">
          <mxGeometry x="60" width="20" height="20" as="geometry">
            <mxRectangle width="20" height="20" as="alternateBounds" />
          </mxGeometry>
        </mxCell>
        <mxCell id="2ie_r9YeU4_pC4aYm68A-95" value="" style="shape=tableRow;horizontal=0;startSize=0;swimlaneHead=0;swimlaneBody=0;top=0;left=0;bottom=0;right=0;collapsible=0;dropTarget=0;fillColor=none;points=[[0,0.5],[1,0.5]];portConstraint=eastwest;fontSize=16;strokeColor=inherit;" vertex="1" parent="2ie_r9YeU4_pC4aYm68A-90">
          <mxGeometry y="20" width="80" height="20" as="geometry" />
        </mxCell>
        <mxCell id="2ie_r9YeU4_pC4aYm68A-96" value="d" style="shape=partialRectangle;html=1;whiteSpace=wrap;connectable=0;fillColor=none;top=0;left=0;bottom=0;right=0;overflow=hidden;fontSize=12;strokeColor=inherit;" vertex="1" parent="2ie_r9YeU4_pC4aYm68A-95">
          <mxGeometry width="20" height="20" as="geometry">
            <mxRectangle width="20" height="20" as="alternateBounds" />
          </mxGeometry>
        </mxCell>
        <mxCell id="2ie_r9YeU4_pC4aYm68A-97" value="1" style="shape=partialRectangle;html=1;whiteSpace=wrap;connectable=0;fillColor=none;top=0;left=0;bottom=0;right=0;overflow=hidden;fontSize=12;strokeColor=inherit;" vertex="1" parent="2ie_r9YeU4_pC4aYm68A-95">
          <mxGeometry x="20" width="20" height="20" as="geometry">
            <mxRectangle width="20" height="20" as="alternateBounds" />
          </mxGeometry>
        </mxCell>
        <mxCell id="2ie_r9YeU4_pC4aYm68A-98" value="d" style="shape=partialRectangle;html=1;whiteSpace=wrap;connectable=0;fillColor=none;top=0;left=0;bottom=0;right=0;overflow=hidden;fontSize=12;strokeColor=inherit;" vertex="1" parent="2ie_r9YeU4_pC4aYm68A-95">
          <mxGeometry x="40" width="20" height="20" as="geometry">
            <mxRectangle width="20" height="20" as="alternateBounds" />
          </mxGeometry>
        </mxCell>
        <mxCell id="2ie_r9YeU4_pC4aYm68A-223" value="d" style="shape=partialRectangle;html=1;whiteSpace=wrap;connectable=0;fillColor=none;top=0;left=0;bottom=0;right=0;overflow=hidden;fontSize=12;strokeColor=inherit;" vertex="1" parent="2ie_r9YeU4_pC4aYm68A-95">
          <mxGeometry x="60" width="20" height="20" as="geometry">
            <mxRectangle width="20" height="20" as="alternateBounds" />
          </mxGeometry>
        </mxCell>
        <mxCell id="2ie_r9YeU4_pC4aYm68A-99" value="" style="shape=tableRow;horizontal=0;startSize=0;swimlaneHead=0;swimlaneBody=0;top=0;left=0;bottom=0;right=0;collapsible=0;dropTarget=0;fillColor=none;points=[[0,0.5],[1,0.5]];portConstraint=eastwest;fontSize=16;strokeColor=inherit;" vertex="1" parent="2ie_r9YeU4_pC4aYm68A-90">
          <mxGeometry y="40" width="80" height="20" as="geometry" />
        </mxCell>
        <mxCell id="2ie_r9YeU4_pC4aYm68A-100" value="d" style="shape=partialRectangle;html=1;whiteSpace=wrap;connectable=0;fillColor=none;top=0;left=0;bottom=0;right=0;overflow=hidden;fontSize=12;strokeColor=inherit;" vertex="1" parent="2ie_r9YeU4_pC4aYm68A-99">
          <mxGeometry width="20" height="20" as="geometry">
            <mxRectangle width="20" height="20" as="alternateBounds" />
          </mxGeometry>
        </mxCell>
        <mxCell id="2ie_r9YeU4_pC4aYm68A-101" value="d" style="shape=partialRectangle;html=1;whiteSpace=wrap;connectable=0;fillColor=none;top=0;left=0;bottom=0;right=0;overflow=hidden;fontSize=12;strokeColor=inherit;" vertex="1" parent="2ie_r9YeU4_pC4aYm68A-99">
          <mxGeometry x="20" width="20" height="20" as="geometry">
            <mxRectangle width="20" height="20" as="alternateBounds" />
          </mxGeometry>
        </mxCell>
        <mxCell id="2ie_r9YeU4_pC4aYm68A-102" value="1" style="shape=partialRectangle;html=1;whiteSpace=wrap;connectable=0;fillColor=none;top=0;left=0;bottom=0;right=0;overflow=hidden;fontSize=12;strokeColor=inherit;" vertex="1" parent="2ie_r9YeU4_pC4aYm68A-99">
          <mxGeometry x="40" width="20" height="20" as="geometry">
            <mxRectangle width="20" height="20" as="alternateBounds" />
          </mxGeometry>
        </mxCell>
        <mxCell id="2ie_r9YeU4_pC4aYm68A-224" value="d" style="shape=partialRectangle;html=1;whiteSpace=wrap;connectable=0;fillColor=none;top=0;left=0;bottom=0;right=0;overflow=hidden;fontSize=12;strokeColor=inherit;" vertex="1" parent="2ie_r9YeU4_pC4aYm68A-99">
          <mxGeometry x="60" width="20" height="20" as="geometry">
            <mxRectangle width="20" height="20" as="alternateBounds" />
          </mxGeometry>
        </mxCell>
        <mxCell id="2ie_r9YeU4_pC4aYm68A-218" style="shape=tableRow;horizontal=0;startSize=0;swimlaneHead=0;swimlaneBody=0;top=0;left=0;bottom=0;right=0;collapsible=0;dropTarget=0;fillColor=none;points=[[0,0.5],[1,0.5]];portConstraint=eastwest;fontSize=16;strokeColor=inherit;" vertex="1" parent="2ie_r9YeU4_pC4aYm68A-90">
          <mxGeometry y="60" width="80" height="20" as="geometry" />
        </mxCell>
        <mxCell id="2ie_r9YeU4_pC4aYm68A-219" value="1" style="shape=partialRectangle;html=1;whiteSpace=wrap;connectable=0;fillColor=none;top=0;left=0;bottom=0;right=0;overflow=hidden;fontSize=12;strokeColor=inherit;" vertex="1" parent="2ie_r9YeU4_pC4aYm68A-218">
          <mxGeometry width="20" height="20" as="geometry">
            <mxRectangle width="20" height="20" as="alternateBounds" />
          </mxGeometry>
        </mxCell>
        <mxCell id="2ie_r9YeU4_pC4aYm68A-220" value="d" style="shape=partialRectangle;html=1;whiteSpace=wrap;connectable=0;fillColor=none;top=0;left=0;bottom=0;right=0;overflow=hidden;fontSize=12;strokeColor=inherit;" vertex="1" parent="2ie_r9YeU4_pC4aYm68A-218">
          <mxGeometry x="20" width="20" height="20" as="geometry">
            <mxRectangle width="20" height="20" as="alternateBounds" />
          </mxGeometry>
        </mxCell>
        <mxCell id="2ie_r9YeU4_pC4aYm68A-221" value="1" style="shape=partialRectangle;html=1;whiteSpace=wrap;connectable=0;fillColor=none;top=0;left=0;bottom=0;right=0;overflow=hidden;fontSize=12;strokeColor=inherit;" vertex="1" parent="2ie_r9YeU4_pC4aYm68A-218">
          <mxGeometry x="40" width="20" height="20" as="geometry">
            <mxRectangle width="20" height="20" as="alternateBounds" />
          </mxGeometry>
        </mxCell>
        <mxCell id="2ie_r9YeU4_pC4aYm68A-225" value="1" style="shape=partialRectangle;html=1;whiteSpace=wrap;connectable=0;fillColor=none;top=0;left=0;bottom=0;right=0;overflow=hidden;fontSize=12;strokeColor=inherit;" vertex="1" parent="2ie_r9YeU4_pC4aYm68A-218">
          <mxGeometry x="60" width="20" height="20" as="geometry">
            <mxRectangle width="20" height="20" as="alternateBounds" />
          </mxGeometry>
        </mxCell>
        <mxCell id="2ie_r9YeU4_pC4aYm68A-86" value="bound" style="swimlane;startSize=20;html=1;" vertex="1" parent="2ie_r9YeU4_pC4aYm68A-84">
          <mxGeometry x="80" y="20" width="80" height="100" as="geometry" />
        </mxCell>
        <mxCell id="2ie_r9YeU4_pC4aYm68A-226" value="" style="shape=table;html=1;whiteSpace=wrap;startSize=0;container=1;collapsible=0;childLayout=tableLayout;columnLines=0;rowLines=0;fontSize=16;strokeColor=default;" vertex="1" parent="2ie_r9YeU4_pC4aYm68A-86">
          <mxGeometry y="20" width="80" height="80" as="geometry" />
        </mxCell>
        <mxCell id="2ie_r9YeU4_pC4aYm68A-227" value="" style="shape=tableRow;horizontal=0;startSize=0;swimlaneHead=0;swimlaneBody=0;top=0;left=0;bottom=0;right=0;collapsible=0;dropTarget=0;fillColor=none;points=[[0,0.5],[1,0.5]];portConstraint=eastwest;fontSize=16;strokeColor=inherit;" vertex="1" parent="2ie_r9YeU4_pC4aYm68A-226">
          <mxGeometry width="80" height="20" as="geometry" />
        </mxCell>
        <mxCell id="2ie_r9YeU4_pC4aYm68A-228" value="1" style="shape=partialRectangle;html=1;whiteSpace=wrap;connectable=0;fillColor=none;top=0;left=0;bottom=0;right=0;overflow=hidden;fontSize=12;strokeColor=inherit;" vertex="1" parent="2ie_r9YeU4_pC4aYm68A-227">
          <mxGeometry width="20" height="20" as="geometry">
            <mxRectangle width="20" height="20" as="alternateBounds" />
          </mxGeometry>
        </mxCell>
        <mxCell id="2ie_r9YeU4_pC4aYm68A-229" value="0" style="shape=partialRectangle;html=1;whiteSpace=wrap;connectable=0;fillColor=none;top=0;left=0;bottom=0;right=0;overflow=hidden;fontSize=12;strokeColor=inherit;" vertex="1" parent="2ie_r9YeU4_pC4aYm68A-227">
          <mxGeometry x="20" width="20" height="20" as="geometry">
            <mxRectangle width="20" height="20" as="alternateBounds" />
          </mxGeometry>
        </mxCell>
        <mxCell id="2ie_r9YeU4_pC4aYm68A-230" value="0" style="shape=partialRectangle;html=1;whiteSpace=wrap;connectable=0;fillColor=none;top=0;left=0;bottom=0;right=0;overflow=hidden;fontSize=12;strokeColor=inherit;" vertex="1" parent="2ie_r9YeU4_pC4aYm68A-227">
          <mxGeometry x="40" width="20" height="20" as="geometry">
            <mxRectangle width="20" height="20" as="alternateBounds" />
          </mxGeometry>
        </mxCell>
        <mxCell id="2ie_r9YeU4_pC4aYm68A-231" value="0" style="shape=partialRectangle;html=1;whiteSpace=wrap;connectable=0;fillColor=none;top=0;left=0;bottom=0;right=0;overflow=hidden;fontSize=12;strokeColor=inherit;" vertex="1" parent="2ie_r9YeU4_pC4aYm68A-227">
          <mxGeometry x="60" width="20" height="20" as="geometry">
            <mxRectangle width="20" height="20" as="alternateBounds" />
          </mxGeometry>
        </mxCell>
        <mxCell id="2ie_r9YeU4_pC4aYm68A-232" value="" style="shape=tableRow;horizontal=0;startSize=0;swimlaneHead=0;swimlaneBody=0;top=0;left=0;bottom=0;right=0;collapsible=0;dropTarget=0;fillColor=none;points=[[0,0.5],[1,0.5]];portConstraint=eastwest;fontSize=16;strokeColor=inherit;" vertex="1" parent="2ie_r9YeU4_pC4aYm68A-226">
          <mxGeometry y="20" width="80" height="20" as="geometry" />
        </mxCell>
        <mxCell id="2ie_r9YeU4_pC4aYm68A-233" value="0" style="shape=partialRectangle;html=1;whiteSpace=wrap;connectable=0;fillColor=none;top=0;left=0;bottom=0;right=0;overflow=hidden;fontSize=12;strokeColor=inherit;" vertex="1" parent="2ie_r9YeU4_pC4aYm68A-232">
          <mxGeometry width="20" height="20" as="geometry">
            <mxRectangle width="20" height="20" as="alternateBounds" />
          </mxGeometry>
        </mxCell>
        <mxCell id="2ie_r9YeU4_pC4aYm68A-234" value="0" style="shape=partialRectangle;html=1;whiteSpace=wrap;connectable=0;fillColor=none;top=0;left=0;bottom=0;right=0;overflow=hidden;fontSize=12;strokeColor=inherit;" vertex="1" parent="2ie_r9YeU4_pC4aYm68A-232">
          <mxGeometry x="20" width="20" height="20" as="geometry">
            <mxRectangle width="20" height="20" as="alternateBounds" />
          </mxGeometry>
        </mxCell>
        <mxCell id="2ie_r9YeU4_pC4aYm68A-235" value="0" style="shape=partialRectangle;html=1;whiteSpace=wrap;connectable=0;fillColor=none;top=0;left=0;bottom=0;right=0;overflow=hidden;fontSize=12;strokeColor=inherit;" vertex="1" parent="2ie_r9YeU4_pC4aYm68A-232">
          <mxGeometry x="40" width="20" height="20" as="geometry">
            <mxRectangle width="20" height="20" as="alternateBounds" />
          </mxGeometry>
        </mxCell>
        <mxCell id="2ie_r9YeU4_pC4aYm68A-236" value="0" style="shape=partialRectangle;html=1;whiteSpace=wrap;connectable=0;fillColor=none;top=0;left=0;bottom=0;right=0;overflow=hidden;fontSize=12;strokeColor=inherit;" vertex="1" parent="2ie_r9YeU4_pC4aYm68A-232">
          <mxGeometry x="60" width="20" height="20" as="geometry">
            <mxRectangle width="20" height="20" as="alternateBounds" />
          </mxGeometry>
        </mxCell>
        <mxCell id="2ie_r9YeU4_pC4aYm68A-237" value="" style="shape=tableRow;horizontal=0;startSize=0;swimlaneHead=0;swimlaneBody=0;top=0;left=0;bottom=0;right=0;collapsible=0;dropTarget=0;fillColor=none;points=[[0,0.5],[1,0.5]];portConstraint=eastwest;fontSize=16;strokeColor=inherit;" vertex="1" parent="2ie_r9YeU4_pC4aYm68A-226">
          <mxGeometry y="40" width="80" height="20" as="geometry" />
        </mxCell>
        <mxCell id="2ie_r9YeU4_pC4aYm68A-238" value="0" style="shape=partialRectangle;html=1;whiteSpace=wrap;connectable=0;fillColor=none;top=0;left=0;bottom=0;right=0;overflow=hidden;fontSize=12;strokeColor=inherit;" vertex="1" parent="2ie_r9YeU4_pC4aYm68A-237">
          <mxGeometry width="20" height="20" as="geometry">
            <mxRectangle width="20" height="20" as="alternateBounds" />
          </mxGeometry>
        </mxCell>
        <mxCell id="2ie_r9YeU4_pC4aYm68A-239" value="0" style="shape=partialRectangle;html=1;whiteSpace=wrap;connectable=0;fillColor=none;top=0;left=0;bottom=0;right=0;overflow=hidden;fontSize=12;strokeColor=inherit;" vertex="1" parent="2ie_r9YeU4_pC4aYm68A-237">
          <mxGeometry x="20" width="20" height="20" as="geometry">
            <mxRectangle width="20" height="20" as="alternateBounds" />
          </mxGeometry>
        </mxCell>
        <mxCell id="2ie_r9YeU4_pC4aYm68A-240" value="0" style="shape=partialRectangle;html=1;whiteSpace=wrap;connectable=0;fillColor=none;top=0;left=0;bottom=0;right=0;overflow=hidden;fontSize=12;strokeColor=inherit;" vertex="1" parent="2ie_r9YeU4_pC4aYm68A-237">
          <mxGeometry x="40" width="20" height="20" as="geometry">
            <mxRectangle width="20" height="20" as="alternateBounds" />
          </mxGeometry>
        </mxCell>
        <mxCell id="2ie_r9YeU4_pC4aYm68A-241" value="0" style="shape=partialRectangle;html=1;whiteSpace=wrap;connectable=0;fillColor=none;top=0;left=0;bottom=0;right=0;overflow=hidden;fontSize=12;strokeColor=inherit;" vertex="1" parent="2ie_r9YeU4_pC4aYm68A-237">
          <mxGeometry x="60" width="20" height="20" as="geometry">
            <mxRectangle width="20" height="20" as="alternateBounds" />
          </mxGeometry>
        </mxCell>
        <mxCell id="2ie_r9YeU4_pC4aYm68A-242" style="shape=tableRow;horizontal=0;startSize=0;swimlaneHead=0;swimlaneBody=0;top=0;left=0;bottom=0;right=0;collapsible=0;dropTarget=0;fillColor=none;points=[[0,0.5],[1,0.5]];portConstraint=eastwest;fontSize=16;strokeColor=inherit;" vertex="1" parent="2ie_r9YeU4_pC4aYm68A-226">
          <mxGeometry y="60" width="80" height="20" as="geometry" />
        </mxCell>
        <mxCell id="2ie_r9YeU4_pC4aYm68A-243" value="1" style="shape=partialRectangle;html=1;whiteSpace=wrap;connectable=0;fillColor=none;top=0;left=0;bottom=0;right=0;overflow=hidden;fontSize=12;strokeColor=inherit;" vertex="1" parent="2ie_r9YeU4_pC4aYm68A-242">
          <mxGeometry width="20" height="20" as="geometry">
            <mxRectangle width="20" height="20" as="alternateBounds" />
          </mxGeometry>
        </mxCell>
        <mxCell id="2ie_r9YeU4_pC4aYm68A-244" value="0" style="shape=partialRectangle;html=1;whiteSpace=wrap;connectable=0;fillColor=none;top=0;left=0;bottom=0;right=0;overflow=hidden;fontSize=12;strokeColor=inherit;" vertex="1" parent="2ie_r9YeU4_pC4aYm68A-242">
          <mxGeometry x="20" width="20" height="20" as="geometry">
            <mxRectangle width="20" height="20" as="alternateBounds" />
          </mxGeometry>
        </mxCell>
        <mxCell id="2ie_r9YeU4_pC4aYm68A-245" value="0" style="shape=partialRectangle;html=1;whiteSpace=wrap;connectable=0;fillColor=none;top=0;left=0;bottom=0;right=0;overflow=hidden;fontSize=12;strokeColor=inherit;" vertex="1" parent="2ie_r9YeU4_pC4aYm68A-242">
          <mxGeometry x="40" width="20" height="20" as="geometry">
            <mxRectangle width="20" height="20" as="alternateBounds" />
          </mxGeometry>
        </mxCell>
        <mxCell id="2ie_r9YeU4_pC4aYm68A-246" value="0" style="shape=partialRectangle;html=1;whiteSpace=wrap;connectable=0;fillColor=none;top=0;left=0;bottom=0;right=0;overflow=hidden;fontSize=12;strokeColor=inherit;" vertex="1" parent="2ie_r9YeU4_pC4aYm68A-242">
          <mxGeometry x="60" width="20" height="20" as="geometry">
            <mxRectangle width="20" height="20" as="alternateBounds" />
          </mxGeometry>
        </mxCell>
        <mxCell id="2ie_r9YeU4_pC4aYm68A-87" value="force" style="swimlane;startSize=20;html=1;" vertex="1" parent="2ie_r9YeU4_pC4aYm68A-84">
          <mxGeometry x="160" y="20" width="80" height="100" as="geometry" />
        </mxCell>
        <mxCell id="2ie_r9YeU4_pC4aYm68A-247" value="" style="shape=table;html=1;whiteSpace=wrap;startSize=0;container=1;collapsible=0;childLayout=tableLayout;columnLines=0;rowLines=0;fontSize=16;strokeColor=default;" vertex="1" parent="2ie_r9YeU4_pC4aYm68A-87">
          <mxGeometry y="20" width="80" height="80" as="geometry" />
        </mxCell>
        <mxCell id="2ie_r9YeU4_pC4aYm68A-248" value="" style="shape=tableRow;horizontal=0;startSize=0;swimlaneHead=0;swimlaneBody=0;top=0;left=0;bottom=0;right=0;collapsible=0;dropTarget=0;fillColor=none;points=[[0,0.5],[1,0.5]];portConstraint=eastwest;fontSize=16;strokeColor=inherit;" vertex="1" parent="2ie_r9YeU4_pC4aYm68A-247">
          <mxGeometry width="80" height="20" as="geometry" />
        </mxCell>
        <mxCell id="2ie_r9YeU4_pC4aYm68A-249" value="1" style="shape=partialRectangle;html=1;whiteSpace=wrap;connectable=0;fillColor=none;top=0;left=0;bottom=0;right=0;overflow=hidden;fontSize=12;strokeColor=inherit;" vertex="1" parent="2ie_r9YeU4_pC4aYm68A-248">
          <mxGeometry width="20" height="20" as="geometry">
            <mxRectangle width="20" height="20" as="alternateBounds" />
          </mxGeometry>
        </mxCell>
        <mxCell id="2ie_r9YeU4_pC4aYm68A-250" value="0" style="shape=partialRectangle;html=1;whiteSpace=wrap;connectable=0;fillColor=none;top=0;left=0;bottom=0;right=0;overflow=hidden;fontSize=12;strokeColor=inherit;" vertex="1" parent="2ie_r9YeU4_pC4aYm68A-248">
          <mxGeometry x="20" width="20" height="20" as="geometry">
            <mxRectangle width="20" height="20" as="alternateBounds" />
          </mxGeometry>
        </mxCell>
        <mxCell id="2ie_r9YeU4_pC4aYm68A-251" value="0" style="shape=partialRectangle;html=1;whiteSpace=wrap;connectable=0;fillColor=none;top=0;left=0;bottom=0;right=0;overflow=hidden;fontSize=12;strokeColor=inherit;" vertex="1" parent="2ie_r9YeU4_pC4aYm68A-248">
          <mxGeometry x="40" width="22" height="20" as="geometry">
            <mxRectangle width="22" height="20" as="alternateBounds" />
          </mxGeometry>
        </mxCell>
        <mxCell id="2ie_r9YeU4_pC4aYm68A-252" value="0" style="shape=partialRectangle;html=1;whiteSpace=wrap;connectable=0;fillColor=none;top=0;left=0;bottom=0;right=0;overflow=hidden;fontSize=12;strokeColor=inherit;" vertex="1" parent="2ie_r9YeU4_pC4aYm68A-248">
          <mxGeometry x="62" width="18" height="20" as="geometry">
            <mxRectangle width="18" height="20" as="alternateBounds" />
          </mxGeometry>
        </mxCell>
        <mxCell id="2ie_r9YeU4_pC4aYm68A-253" value="" style="shape=tableRow;horizontal=0;startSize=0;swimlaneHead=0;swimlaneBody=0;top=0;left=0;bottom=0;right=0;collapsible=0;dropTarget=0;fillColor=none;points=[[0,0.5],[1,0.5]];portConstraint=eastwest;fontSize=16;strokeColor=inherit;" vertex="1" parent="2ie_r9YeU4_pC4aYm68A-247">
          <mxGeometry y="20" width="80" height="21" as="geometry" />
        </mxCell>
        <mxCell id="2ie_r9YeU4_pC4aYm68A-254" value="0" style="shape=partialRectangle;html=1;whiteSpace=wrap;connectable=0;fillColor=none;top=0;left=0;bottom=0;right=0;overflow=hidden;fontSize=12;strokeColor=inherit;" vertex="1" parent="2ie_r9YeU4_pC4aYm68A-253">
          <mxGeometry width="20" height="21" as="geometry">
            <mxRectangle width="20" height="21" as="alternateBounds" />
          </mxGeometry>
        </mxCell>
        <mxCell id="2ie_r9YeU4_pC4aYm68A-255" value="0" style="shape=partialRectangle;html=1;whiteSpace=wrap;connectable=0;fillColor=none;top=0;left=0;bottom=0;right=0;overflow=hidden;fontSize=12;strokeColor=inherit;" vertex="1" parent="2ie_r9YeU4_pC4aYm68A-253">
          <mxGeometry x="20" width="20" height="21" as="geometry">
            <mxRectangle width="20" height="21" as="alternateBounds" />
          </mxGeometry>
        </mxCell>
        <mxCell id="2ie_r9YeU4_pC4aYm68A-256" value="0" style="shape=partialRectangle;html=1;whiteSpace=wrap;connectable=0;fillColor=none;top=0;left=0;bottom=0;right=0;overflow=hidden;fontSize=12;strokeColor=inherit;" vertex="1" parent="2ie_r9YeU4_pC4aYm68A-253">
          <mxGeometry x="40" width="22" height="21" as="geometry">
            <mxRectangle width="22" height="21" as="alternateBounds" />
          </mxGeometry>
        </mxCell>
        <mxCell id="2ie_r9YeU4_pC4aYm68A-257" value="0" style="shape=partialRectangle;html=1;whiteSpace=wrap;connectable=0;fillColor=none;top=0;left=0;bottom=0;right=0;overflow=hidden;fontSize=12;strokeColor=inherit;" vertex="1" parent="2ie_r9YeU4_pC4aYm68A-253">
          <mxGeometry x="62" width="18" height="21" as="geometry">
            <mxRectangle width="18" height="21" as="alternateBounds" />
          </mxGeometry>
        </mxCell>
        <mxCell id="2ie_r9YeU4_pC4aYm68A-258" value="" style="shape=tableRow;horizontal=0;startSize=0;swimlaneHead=0;swimlaneBody=0;top=0;left=0;bottom=0;right=0;collapsible=0;dropTarget=0;fillColor=none;points=[[0,0.5],[1,0.5]];portConstraint=eastwest;fontSize=16;strokeColor=inherit;" vertex="1" parent="2ie_r9YeU4_pC4aYm68A-247">
          <mxGeometry y="41" width="80" height="19" as="geometry" />
        </mxCell>
        <mxCell id="2ie_r9YeU4_pC4aYm68A-259" value="0" style="shape=partialRectangle;html=1;whiteSpace=wrap;connectable=0;fillColor=none;top=0;left=0;bottom=0;right=0;overflow=hidden;fontSize=12;strokeColor=inherit;" vertex="1" parent="2ie_r9YeU4_pC4aYm68A-258">
          <mxGeometry width="20" height="19" as="geometry">
            <mxRectangle width="20" height="19" as="alternateBounds" />
          </mxGeometry>
        </mxCell>
        <mxCell id="2ie_r9YeU4_pC4aYm68A-260" value="0" style="shape=partialRectangle;html=1;whiteSpace=wrap;connectable=0;fillColor=none;top=0;left=0;bottom=0;right=0;overflow=hidden;fontSize=12;strokeColor=inherit;" vertex="1" parent="2ie_r9YeU4_pC4aYm68A-258">
          <mxGeometry x="20" width="20" height="19" as="geometry">
            <mxRectangle width="20" height="19" as="alternateBounds" />
          </mxGeometry>
        </mxCell>
        <mxCell id="2ie_r9YeU4_pC4aYm68A-261" value="0" style="shape=partialRectangle;html=1;whiteSpace=wrap;connectable=0;fillColor=none;top=0;left=0;bottom=0;right=0;overflow=hidden;fontSize=12;strokeColor=inherit;" vertex="1" parent="2ie_r9YeU4_pC4aYm68A-258">
          <mxGeometry x="40" width="22" height="19" as="geometry">
            <mxRectangle width="22" height="19" as="alternateBounds" />
          </mxGeometry>
        </mxCell>
        <mxCell id="2ie_r9YeU4_pC4aYm68A-262" value="0" style="shape=partialRectangle;html=1;whiteSpace=wrap;connectable=0;fillColor=none;top=0;left=0;bottom=0;right=0;overflow=hidden;fontSize=12;strokeColor=inherit;" vertex="1" parent="2ie_r9YeU4_pC4aYm68A-258">
          <mxGeometry x="62" width="18" height="19" as="geometry">
            <mxRectangle width="18" height="19" as="alternateBounds" />
          </mxGeometry>
        </mxCell>
        <mxCell id="2ie_r9YeU4_pC4aYm68A-263" style="shape=tableRow;horizontal=0;startSize=0;swimlaneHead=0;swimlaneBody=0;top=0;left=0;bottom=0;right=0;collapsible=0;dropTarget=0;fillColor=none;points=[[0,0.5],[1,0.5]];portConstraint=eastwest;fontSize=16;strokeColor=inherit;" vertex="1" parent="2ie_r9YeU4_pC4aYm68A-247">
          <mxGeometry y="60" width="80" height="20" as="geometry" />
        </mxCell>
        <mxCell id="2ie_r9YeU4_pC4aYm68A-264" value="1" style="shape=partialRectangle;html=1;whiteSpace=wrap;connectable=0;fillColor=none;top=0;left=0;bottom=0;right=0;overflow=hidden;fontSize=12;strokeColor=inherit;" vertex="1" parent="2ie_r9YeU4_pC4aYm68A-263">
          <mxGeometry width="20" height="20" as="geometry">
            <mxRectangle width="20" height="20" as="alternateBounds" />
          </mxGeometry>
        </mxCell>
        <mxCell id="2ie_r9YeU4_pC4aYm68A-265" value="0" style="shape=partialRectangle;html=1;whiteSpace=wrap;connectable=0;fillColor=none;top=0;left=0;bottom=0;right=0;overflow=hidden;fontSize=12;strokeColor=inherit;" vertex="1" parent="2ie_r9YeU4_pC4aYm68A-263">
          <mxGeometry x="20" width="20" height="20" as="geometry">
            <mxRectangle width="20" height="20" as="alternateBounds" />
          </mxGeometry>
        </mxCell>
        <mxCell id="2ie_r9YeU4_pC4aYm68A-266" value="0" style="shape=partialRectangle;html=1;whiteSpace=wrap;connectable=0;fillColor=none;top=0;left=0;bottom=0;right=0;overflow=hidden;fontSize=12;strokeColor=inherit;" vertex="1" parent="2ie_r9YeU4_pC4aYm68A-263">
          <mxGeometry x="40" width="22" height="20" as="geometry">
            <mxRectangle width="22" height="20" as="alternateBounds" />
          </mxGeometry>
        </mxCell>
        <mxCell id="2ie_r9YeU4_pC4aYm68A-267" value="0" style="shape=partialRectangle;html=1;whiteSpace=wrap;connectable=0;fillColor=none;top=0;left=0;bottom=0;right=0;overflow=hidden;fontSize=12;strokeColor=inherit;" vertex="1" parent="2ie_r9YeU4_pC4aYm68A-263">
          <mxGeometry x="62" width="18" height="20" as="geometry">
            <mxRectangle width="18" height="20" as="alternateBounds" />
          </mxGeometry>
        </mxCell>
        <mxCell id="2ie_r9YeU4_pC4aYm68A-88" value="compliance" style="swimlane;startSize=20;html=1;" vertex="1" parent="2ie_r9YeU4_pC4aYm68A-84">
          <mxGeometry x="240" y="20" width="80" height="100" as="geometry" />
        </mxCell>
        <mxCell id="2ie_r9YeU4_pC4aYm68A-268" value="" style="shape=table;html=1;whiteSpace=wrap;startSize=0;container=1;collapsible=0;childLayout=tableLayout;columnLines=0;rowLines=0;fontSize=16;strokeColor=default;" vertex="1" parent="2ie_r9YeU4_pC4aYm68A-88">
          <mxGeometry y="20" width="80" height="80" as="geometry" />
        </mxCell>
        <mxCell id="2ie_r9YeU4_pC4aYm68A-269" value="" style="shape=tableRow;horizontal=0;startSize=0;swimlaneHead=0;swimlaneBody=0;top=0;left=0;bottom=0;right=0;collapsible=0;dropTarget=0;fillColor=none;points=[[0,0.5],[1,0.5]];portConstraint=eastwest;fontSize=16;strokeColor=inherit;" vertex="1" parent="2ie_r9YeU4_pC4aYm68A-268">
          <mxGeometry width="80" height="20" as="geometry" />
        </mxCell>
        <mxCell id="2ie_r9YeU4_pC4aYm68A-270" value="123&lt;span style=&quot;white-space: pre;&quot;&gt;&#x9;&lt;/span&gt;" style="shape=partialRectangle;html=1;whiteSpace=wrap;connectable=0;fillColor=none;top=0;left=0;bottom=0;right=0;overflow=hidden;fontSize=12;strokeColor=inherit;" vertex="1" parent="2ie_r9YeU4_pC4aYm68A-269">
          <mxGeometry width="20" height="20" as="geometry">
            <mxRectangle width="20" height="20" as="alternateBounds" />
          </mxGeometry>
        </mxCell>
        <mxCell id="2ie_r9YeU4_pC4aYm68A-271" value="321" style="shape=partialRectangle;html=1;whiteSpace=wrap;connectable=0;fillColor=none;top=0;left=0;bottom=0;right=0;overflow=hidden;fontSize=12;strokeColor=inherit;" vertex="1" parent="2ie_r9YeU4_pC4aYm68A-269">
          <mxGeometry x="20" width="20" height="20" as="geometry">
            <mxRectangle width="20" height="20" as="alternateBounds" />
          </mxGeometry>
        </mxCell>
        <mxCell id="2ie_r9YeU4_pC4aYm68A-272" value="123" style="shape=partialRectangle;html=1;whiteSpace=wrap;connectable=0;fillColor=none;top=0;left=0;bottom=0;right=0;overflow=hidden;fontSize=12;strokeColor=inherit;" vertex="1" parent="2ie_r9YeU4_pC4aYm68A-269">
          <mxGeometry x="40" width="22" height="20" as="geometry">
            <mxRectangle width="22" height="20" as="alternateBounds" />
          </mxGeometry>
        </mxCell>
        <mxCell id="2ie_r9YeU4_pC4aYm68A-273" value="321" style="shape=partialRectangle;html=1;whiteSpace=wrap;connectable=0;fillColor=none;top=0;left=0;bottom=0;right=0;overflow=hidden;fontSize=12;strokeColor=inherit;" vertex="1" parent="2ie_r9YeU4_pC4aYm68A-269">
          <mxGeometry x="62" width="18" height="20" as="geometry">
            <mxRectangle width="18" height="20" as="alternateBounds" />
          </mxGeometry>
        </mxCell>
        <mxCell id="2ie_r9YeU4_pC4aYm68A-274" value="" style="shape=tableRow;horizontal=0;startSize=0;swimlaneHead=0;swimlaneBody=0;top=0;left=0;bottom=0;right=0;collapsible=0;dropTarget=0;fillColor=none;points=[[0,0.5],[1,0.5]];portConstraint=eastwest;fontSize=16;strokeColor=inherit;" vertex="1" parent="2ie_r9YeU4_pC4aYm68A-268">
          <mxGeometry y="20" width="80" height="20" as="geometry" />
        </mxCell>
        <mxCell id="2ie_r9YeU4_pC4aYm68A-275" value="123" style="shape=partialRectangle;html=1;whiteSpace=wrap;connectable=0;fillColor=none;top=0;left=0;bottom=0;right=0;overflow=hidden;fontSize=12;strokeColor=inherit;" vertex="1" parent="2ie_r9YeU4_pC4aYm68A-274">
          <mxGeometry width="20" height="20" as="geometry">
            <mxRectangle width="20" height="20" as="alternateBounds" />
          </mxGeometry>
        </mxCell>
        <mxCell id="2ie_r9YeU4_pC4aYm68A-276" value="321" style="shape=partialRectangle;html=1;whiteSpace=wrap;connectable=0;fillColor=none;top=0;left=0;bottom=0;right=0;overflow=hidden;fontSize=12;strokeColor=inherit;" vertex="1" parent="2ie_r9YeU4_pC4aYm68A-274">
          <mxGeometry x="20" width="20" height="20" as="geometry">
            <mxRectangle width="20" height="20" as="alternateBounds" />
          </mxGeometry>
        </mxCell>
        <mxCell id="2ie_r9YeU4_pC4aYm68A-277" value="123" style="shape=partialRectangle;html=1;whiteSpace=wrap;connectable=0;fillColor=none;top=0;left=0;bottom=0;right=0;overflow=hidden;fontSize=12;strokeColor=inherit;" vertex="1" parent="2ie_r9YeU4_pC4aYm68A-274">
          <mxGeometry x="40" width="22" height="20" as="geometry">
            <mxRectangle width="22" height="20" as="alternateBounds" />
          </mxGeometry>
        </mxCell>
        <mxCell id="2ie_r9YeU4_pC4aYm68A-278" value="123" style="shape=partialRectangle;html=1;whiteSpace=wrap;connectable=0;fillColor=none;top=0;left=0;bottom=0;right=0;overflow=hidden;fontSize=12;strokeColor=inherit;" vertex="1" parent="2ie_r9YeU4_pC4aYm68A-274">
          <mxGeometry x="62" width="18" height="20" as="geometry">
            <mxRectangle width="18" height="20" as="alternateBounds" />
          </mxGeometry>
        </mxCell>
        <mxCell id="2ie_r9YeU4_pC4aYm68A-279" value="" style="shape=tableRow;horizontal=0;startSize=0;swimlaneHead=0;swimlaneBody=0;top=0;left=0;bottom=0;right=0;collapsible=0;dropTarget=0;fillColor=none;points=[[0,0.5],[1,0.5]];portConstraint=eastwest;fontSize=16;strokeColor=inherit;" vertex="1" parent="2ie_r9YeU4_pC4aYm68A-268">
          <mxGeometry y="40" width="80" height="20" as="geometry" />
        </mxCell>
        <mxCell id="2ie_r9YeU4_pC4aYm68A-280" value="321" style="shape=partialRectangle;html=1;whiteSpace=wrap;connectable=0;fillColor=none;top=0;left=0;bottom=0;right=0;overflow=hidden;fontSize=12;strokeColor=inherit;" vertex="1" parent="2ie_r9YeU4_pC4aYm68A-279">
          <mxGeometry width="20" height="20" as="geometry">
            <mxRectangle width="20" height="20" as="alternateBounds" />
          </mxGeometry>
        </mxCell>
        <mxCell id="2ie_r9YeU4_pC4aYm68A-281" value="123" style="shape=partialRectangle;html=1;whiteSpace=wrap;connectable=0;fillColor=none;top=0;left=0;bottom=0;right=0;overflow=hidden;fontSize=12;strokeColor=inherit;" vertex="1" parent="2ie_r9YeU4_pC4aYm68A-279">
          <mxGeometry x="20" width="20" height="20" as="geometry">
            <mxRectangle width="20" height="20" as="alternateBounds" />
          </mxGeometry>
        </mxCell>
        <mxCell id="2ie_r9YeU4_pC4aYm68A-282" value="123" style="shape=partialRectangle;html=1;whiteSpace=wrap;connectable=0;fillColor=none;top=0;left=0;bottom=0;right=0;overflow=hidden;fontSize=12;strokeColor=inherit;" vertex="1" parent="2ie_r9YeU4_pC4aYm68A-279">
          <mxGeometry x="40" width="22" height="20" as="geometry">
            <mxRectangle width="22" height="20" as="alternateBounds" />
          </mxGeometry>
        </mxCell>
        <mxCell id="2ie_r9YeU4_pC4aYm68A-283" value="321" style="shape=partialRectangle;html=1;whiteSpace=wrap;connectable=0;fillColor=none;top=0;left=0;bottom=0;right=0;overflow=hidden;fontSize=12;strokeColor=inherit;" vertex="1" parent="2ie_r9YeU4_pC4aYm68A-279">
          <mxGeometry x="62" width="18" height="20" as="geometry">
            <mxRectangle width="18" height="20" as="alternateBounds" />
          </mxGeometry>
        </mxCell>
        <mxCell id="2ie_r9YeU4_pC4aYm68A-284" style="shape=tableRow;horizontal=0;startSize=0;swimlaneHead=0;swimlaneBody=0;top=0;left=0;bottom=0;right=0;collapsible=0;dropTarget=0;fillColor=none;points=[[0,0.5],[1,0.5]];portConstraint=eastwest;fontSize=16;strokeColor=inherit;" vertex="1" parent="2ie_r9YeU4_pC4aYm68A-268">
          <mxGeometry y="60" width="80" height="20" as="geometry" />
        </mxCell>
        <mxCell id="2ie_r9YeU4_pC4aYm68A-285" value="321" style="shape=partialRectangle;html=1;whiteSpace=wrap;connectable=0;fillColor=none;top=0;left=0;bottom=0;right=0;overflow=hidden;fontSize=12;strokeColor=inherit;" vertex="1" parent="2ie_r9YeU4_pC4aYm68A-284">
          <mxGeometry width="20" height="20" as="geometry">
            <mxRectangle width="20" height="20" as="alternateBounds" />
          </mxGeometry>
        </mxCell>
        <mxCell id="2ie_r9YeU4_pC4aYm68A-286" value="123" style="shape=partialRectangle;html=1;whiteSpace=wrap;connectable=0;fillColor=none;top=0;left=0;bottom=0;right=0;overflow=hidden;fontSize=12;strokeColor=inherit;" vertex="1" parent="2ie_r9YeU4_pC4aYm68A-284">
          <mxGeometry x="20" width="20" height="20" as="geometry">
            <mxRectangle width="20" height="20" as="alternateBounds" />
          </mxGeometry>
        </mxCell>
        <mxCell id="2ie_r9YeU4_pC4aYm68A-287" value="321" style="shape=partialRectangle;html=1;whiteSpace=wrap;connectable=0;fillColor=none;top=0;left=0;bottom=0;right=0;overflow=hidden;fontSize=12;strokeColor=inherit;" vertex="1" parent="2ie_r9YeU4_pC4aYm68A-284">
          <mxGeometry x="40" width="22" height="20" as="geometry">
            <mxRectangle width="22" height="20" as="alternateBounds" />
          </mxGeometry>
        </mxCell>
        <mxCell id="2ie_r9YeU4_pC4aYm68A-288" value="123" style="shape=partialRectangle;html=1;whiteSpace=wrap;connectable=0;fillColor=none;top=0;left=0;bottom=0;right=0;overflow=hidden;fontSize=12;strokeColor=inherit;" vertex="1" parent="2ie_r9YeU4_pC4aYm68A-284">
          <mxGeometry x="62" width="18" height="20" as="geometry">
            <mxRectangle width="18" height="20" as="alternateBounds" />
          </mxGeometry>
        </mxCell>
        <mxCell id="2ie_r9YeU4_pC4aYm68A-289" value="actions_to_coordinates" style="shape=table;startSize=30;container=1;collapsible=0;childLayout=tableLayout;fixedRows=1;rowLines=0;fontStyle=0;strokeColor=default;fontSize=12;" vertex="1" parent="WIyWlLk6GJQsqaUBKTNV-1">
          <mxGeometry x="1024" y="100" width="216.67" height="130" as="geometry" />
        </mxCell>
        <mxCell id="2ie_r9YeU4_pC4aYm68A-290" value="" style="shape=tableRow;horizontal=0;startSize=0;swimlaneHead=0;swimlaneBody=0;top=0;left=0;bottom=0;right=0;collapsible=0;dropTarget=0;fillColor=none;points=[[0,0.5],[1,0.5]];portConstraint=eastwest;strokeColor=inherit;fontSize=16;" vertex="1" parent="2ie_r9YeU4_pC4aYm68A-289">
          <mxGeometry y="30" width="216.67" height="20" as="geometry" />
        </mxCell>
        <mxCell id="2ie_r9YeU4_pC4aYm68A-291" value="0" style="shape=partialRectangle;html=1;whiteSpace=wrap;connectable=0;fillColor=none;top=0;left=0;bottom=0;right=0;overflow=hidden;pointerEvents=1;strokeColor=inherit;fontSize=12;" vertex="1" parent="2ie_r9YeU4_pC4aYm68A-290">
          <mxGeometry width="126" height="20" as="geometry">
            <mxRectangle width="126" height="20" as="alternateBounds" />
          </mxGeometry>
        </mxCell>
        <mxCell id="2ie_r9YeU4_pC4aYm68A-292" value="(0, 0)" style="shape=partialRectangle;html=1;whiteSpace=wrap;connectable=0;fillColor=none;top=0;left=0;bottom=0;right=0;align=center;spacingLeft=6;overflow=hidden;strokeColor=inherit;fontSize=12;" vertex="1" parent="2ie_r9YeU4_pC4aYm68A-290">
          <mxGeometry x="126" width="91" height="20" as="geometry">
            <mxRectangle width="91" height="20" as="alternateBounds" />
          </mxGeometry>
        </mxCell>
        <mxCell id="2ie_r9YeU4_pC4aYm68A-293" value="" style="shape=tableRow;horizontal=0;startSize=0;swimlaneHead=0;swimlaneBody=0;top=0;left=0;bottom=0;right=0;collapsible=0;dropTarget=0;fillColor=none;points=[[0,0.5],[1,0.5]];portConstraint=eastwest;strokeColor=inherit;fontSize=16;" vertex="1" parent="2ie_r9YeU4_pC4aYm68A-289">
          <mxGeometry y="50" width="216.67" height="20" as="geometry" />
        </mxCell>
        <mxCell id="2ie_r9YeU4_pC4aYm68A-294" value="&lt;font style=&quot;font-size: 12px;&quot;&gt;1&lt;/font&gt;" style="shape=partialRectangle;html=1;whiteSpace=wrap;connectable=0;fillColor=none;top=0;left=0;bottom=0;right=0;overflow=hidden;strokeColor=inherit;fontSize=16;" vertex="1" parent="2ie_r9YeU4_pC4aYm68A-293">
          <mxGeometry width="126" height="20" as="geometry">
            <mxRectangle width="126" height="20" as="alternateBounds" />
          </mxGeometry>
        </mxCell>
        <mxCell id="2ie_r9YeU4_pC4aYm68A-295" value="(0, 1)" style="shape=partialRectangle;html=1;whiteSpace=wrap;connectable=0;fillColor=none;top=0;left=0;bottom=0;right=0;align=center;spacingLeft=6;overflow=hidden;strokeColor=inherit;fontSize=12;" vertex="1" parent="2ie_r9YeU4_pC4aYm68A-293">
          <mxGeometry x="126" width="91" height="20" as="geometry">
            <mxRectangle width="91" height="20" as="alternateBounds" />
          </mxGeometry>
        </mxCell>
        <mxCell id="2ie_r9YeU4_pC4aYm68A-296" value="" style="shape=tableRow;horizontal=0;startSize=0;swimlaneHead=0;swimlaneBody=0;top=0;left=0;bottom=0;right=0;collapsible=0;dropTarget=0;fillColor=none;points=[[0,0.5],[1,0.5]];portConstraint=eastwest;strokeColor=inherit;fontSize=16;" vertex="1" parent="2ie_r9YeU4_pC4aYm68A-289">
          <mxGeometry y="70" width="216.67" height="20" as="geometry" />
        </mxCell>
        <mxCell id="2ie_r9YeU4_pC4aYm68A-297" value="&lt;font style=&quot;font-size: 12px;&quot;&gt;2&lt;/font&gt;" style="shape=partialRectangle;html=1;whiteSpace=wrap;connectable=0;fillColor=none;top=0;left=0;bottom=0;right=0;overflow=hidden;strokeColor=inherit;fontSize=16;align=center;" vertex="1" parent="2ie_r9YeU4_pC4aYm68A-296">
          <mxGeometry width="126" height="20" as="geometry">
            <mxRectangle width="126" height="20" as="alternateBounds" />
          </mxGeometry>
        </mxCell>
        <mxCell id="2ie_r9YeU4_pC4aYm68A-298" value="(0, 2)" style="shape=partialRectangle;html=1;whiteSpace=wrap;connectable=0;fillColor=none;top=0;left=0;bottom=0;right=0;align=center;spacingLeft=6;overflow=hidden;strokeColor=inherit;fontSize=12;" vertex="1" parent="2ie_r9YeU4_pC4aYm68A-296">
          <mxGeometry x="126" width="91" height="20" as="geometry">
            <mxRectangle width="91" height="20" as="alternateBounds" />
          </mxGeometry>
        </mxCell>
        <mxCell id="2ie_r9YeU4_pC4aYm68A-299" style="shape=tableRow;horizontal=0;startSize=0;swimlaneHead=0;swimlaneBody=0;top=0;left=0;bottom=0;right=0;collapsible=0;dropTarget=0;fillColor=none;points=[[0,0.5],[1,0.5]];portConstraint=eastwest;strokeColor=inherit;fontSize=16;" vertex="1" parent="2ie_r9YeU4_pC4aYm68A-289">
          <mxGeometry y="90" width="216.67" height="20" as="geometry" />
        </mxCell>
        <mxCell id="2ie_r9YeU4_pC4aYm68A-300" value="&lt;font style=&quot;font-size: 12px;&quot;&gt;.....&lt;/font&gt;" style="shape=partialRectangle;html=1;whiteSpace=wrap;connectable=0;fillColor=none;top=0;left=0;bottom=0;right=0;overflow=hidden;strokeColor=inherit;fontSize=16;" vertex="1" parent="2ie_r9YeU4_pC4aYm68A-299">
          <mxGeometry width="126" height="20" as="geometry">
            <mxRectangle width="126" height="20" as="alternateBounds" />
          </mxGeometry>
        </mxCell>
        <mxCell id="2ie_r9YeU4_pC4aYm68A-301" value="....." style="shape=partialRectangle;html=1;whiteSpace=wrap;connectable=0;fillColor=none;top=0;left=0;bottom=0;right=0;align=center;spacingLeft=6;overflow=hidden;strokeColor=inherit;fontSize=12;" vertex="1" parent="2ie_r9YeU4_pC4aYm68A-299">
          <mxGeometry x="126" width="91" height="20" as="geometry">
            <mxRectangle width="91" height="20" as="alternateBounds" />
          </mxGeometry>
        </mxCell>
        <mxCell id="2ie_r9YeU4_pC4aYm68A-302" style="shape=tableRow;horizontal=0;startSize=0;swimlaneHead=0;swimlaneBody=0;top=0;left=0;bottom=0;right=0;collapsible=0;dropTarget=0;fillColor=none;points=[[0,0.5],[1,0.5]];portConstraint=eastwest;strokeColor=inherit;fontSize=16;" vertex="1" parent="2ie_r9YeU4_pC4aYm68A-289">
          <mxGeometry y="110" width="216.67" height="20" as="geometry" />
        </mxCell>
        <mxCell id="2ie_r9YeU4_pC4aYm68A-303" value="&lt;font style=&quot;font-size: 12px;&quot;&gt;number_of_nodes&lt;/font&gt;" style="shape=partialRectangle;html=1;whiteSpace=wrap;connectable=0;fillColor=none;top=0;left=0;bottom=0;right=0;overflow=hidden;strokeColor=inherit;fontSize=16;align=center;" vertex="1" parent="2ie_r9YeU4_pC4aYm68A-302">
          <mxGeometry width="126" height="20" as="geometry">
            <mxRectangle width="126" height="20" as="alternateBounds" />
          </mxGeometry>
        </mxCell>
        <mxCell id="2ie_r9YeU4_pC4aYm68A-304" value="&lt;font style=&quot;font-size: 12px;&quot;&gt;(height, width)&lt;/font&gt;" style="shape=partialRectangle;html=1;whiteSpace=wrap;connectable=0;fillColor=none;top=0;left=0;bottom=0;right=0;align=center;spacingLeft=6;overflow=hidden;strokeColor=inherit;fontSize=12;" vertex="1" parent="2ie_r9YeU4_pC4aYm68A-302">
          <mxGeometry x="126" width="91" height="20" as="geometry">
            <mxRectangle width="91" height="20" as="alternateBounds" />
          </mxGeometry>
        </mxCell>
        <mxCell id="2ie_r9YeU4_pC4aYm68A-309" value="Illegal Actions" style="swimlane;fontStyle=0;childLayout=stackLayout;horizontal=1;startSize=30;horizontalStack=0;resizeParent=1;resizeParentMax=0;resizeLast=0;collapsible=1;marginBottom=0;whiteSpace=wrap;html=1;" vertex="1" parent="WIyWlLk6GJQsqaUBKTNV-1">
          <mxGeometry y="70" width="220" height="110" as="geometry" />
        </mxCell>
        <mxCell id="2ie_r9YeU4_pC4aYm68A-310" value="already remove Node" style="text;strokeColor=none;fillColor=none;align=left;verticalAlign=middle;spacingLeft=4;spacingRight=4;overflow=hidden;points=[[0,0.5],[1,0.5]];portConstraint=eastwest;rotatable=0;whiteSpace=wrap;html=1;" vertex="1" parent="2ie_r9YeU4_pC4aYm68A-309">
          <mxGeometry y="30" width="220" height="20" as="geometry" />
        </mxCell>
        <mxCell id="2ie_r9YeU4_pC4aYm68A-311" value="is bounded Node" style="text;strokeColor=none;fillColor=none;align=left;verticalAlign=middle;spacingLeft=4;spacingRight=4;overflow=hidden;points=[[0,0.5],[1,0.5]];portConstraint=eastwest;rotatable=0;whiteSpace=wrap;html=1;" vertex="1" parent="2ie_r9YeU4_pC4aYm68A-309">
          <mxGeometry y="50" width="220" height="20" as="geometry" />
        </mxCell>
        <mxCell id="2ie_r9YeU4_pC4aYm68A-312" value="is loaded Node" style="text;strokeColor=none;fillColor=none;align=left;verticalAlign=middle;spacingLeft=4;spacingRight=4;overflow=hidden;points=[[0,0.5],[1,0.5]];portConstraint=eastwest;rotatable=0;whiteSpace=wrap;html=1;" vertex="1" parent="2ie_r9YeU4_pC4aYm68A-309">
          <mxGeometry y="70" width="220" height="20" as="geometry" />
        </mxCell>
        <mxCell id="2ie_r9YeU4_pC4aYm68A-313" value="would interrupt continuity of the design" style="text;strokeColor=none;fillColor=none;align=left;verticalAlign=middle;spacingLeft=4;spacingRight=4;overflow=hidden;points=[[0,0.5],[1,0.5]];portConstraint=eastwest;rotatable=0;whiteSpace=wrap;html=1;" vertex="1" parent="2ie_r9YeU4_pC4aYm68A-309">
          <mxGeometry y="90" width="220" height="20" as="geometry" />
        </mxCell>
        <mxCell id="2ie_r9YeU4_pC4aYm68A-315" value="" style="endArrow=none;dashed=1;html=1;dashPattern=1 4;strokeWidth=2;rounded=0;entryX=0.231;entryY=0.292;entryDx=0;entryDy=0;exitX=1.003;exitY=0.683;exitDx=0;exitDy=0;exitPerimeter=0;entryPerimeter=0;" edge="1" parent="WIyWlLk6GJQsqaUBKTNV-1" source="2ie_r9YeU4_pC4aYm68A-310" target="2ie_r9YeU4_pC4aYm68A-32">
          <mxGeometry width="50" height="50" relative="1" as="geometry">
            <mxPoint x="240" y="190" as="sourcePoint" />
            <mxPoint x="290" y="210" as="targetPoint" />
            <Array as="points">
              <mxPoint x="320" y="114" />
            </Array>
          </mxGeometry>
        </mxCell>
        <mxCell id="2ie_r9YeU4_pC4aYm68A-361" value="" style="edgeStyle=orthogonalEdgeStyle;rounded=0;orthogonalLoop=1;jettySize=auto;html=1;" edge="1" parent="WIyWlLk6GJQsqaUBKTNV-1" source="2ie_r9YeU4_pC4aYm68A-318" target="2ie_r9YeU4_pC4aYm68A-354">
          <mxGeometry relative="1" as="geometry" />
        </mxCell>
        <mxCell id="2ie_r9YeU4_pC4aYm68A-373" style="edgeStyle=orthogonalEdgeStyle;rounded=0;orthogonalLoop=1;jettySize=auto;html=1;entryX=0;entryY=0.5;entryDx=0;entryDy=0;exitX=0;exitY=0.5;exitDx=0;exitDy=0;dashed=1;strokeWidth=2;" edge="1" parent="WIyWlLk6GJQsqaUBKTNV-1" source="2ie_r9YeU4_pC4aYm68A-318" target="2ie_r9YeU4_pC4aYm68A-354">
          <mxGeometry relative="1" as="geometry">
            <Array as="points">
              <mxPoint x="100" y="418" />
              <mxPoint x="100" y="485.00000000000006" />
            </Array>
          </mxGeometry>
        </mxCell>
        <mxCell id="2ie_r9YeU4_pC4aYm68A-318" value="get_compliance(design_space[design], freedofs, fixdofs, forces)" style="rounded=0;whiteSpace=wrap;html=1;" vertex="1" parent="WIyWlLk6GJQsqaUBKTNV-1">
          <mxGeometry x="119.99999999999999" y="400" width="480" height="35" as="geometry" />
        </mxCell>
        <mxCell id="2ie_r9YeU4_pC4aYm68A-324" value="TopOptEnv" style="swimlane;fontStyle=0;childLayout=stackLayout;horizontal=1;startSize=26;fillColor=none;horizontalStack=0;resizeParent=1;resizeParentMax=0;resizeLast=0;collapsible=1;marginBottom=0;whiteSpace=wrap;html=1;" vertex="1" parent="WIyWlLk6GJQsqaUBKTNV-1">
          <mxGeometry x="670" y="400" width="320" height="606" as="geometry" />
        </mxCell>
        <mxCell id="2ie_r9YeU4_pC4aYm68A-325" value="+ mode: string" style="text;strokeColor=none;fillColor=none;align=left;verticalAlign=top;spacingLeft=4;spacingRight=4;overflow=hidden;rotatable=0;points=[[0,0.5],[1,0.5]];portConstraint=eastwest;whiteSpace=wrap;html=1;" vertex="1" parent="2ie_r9YeU4_pC4aYm68A-324">
          <mxGeometry y="26" width="320" height="26" as="geometry" />
        </mxCell>
        <mxCell id="2ie_r9YeU4_pC4aYm68A-326" value="+ threshold: float" style="text;strokeColor=none;fillColor=none;align=left;verticalAlign=top;spacingLeft=4;spacingRight=4;overflow=hidden;rotatable=0;points=[[0,0.5],[1,0.5]];portConstraint=eastwest;whiteSpace=wrap;html=1;" vertex="1" parent="2ie_r9YeU4_pC4aYm68A-324">
          <mxGeometry y="52" width="320" height="26" as="geometry" />
        </mxCell>
        <mxCell id="2ie_r9YeU4_pC4aYm68A-327" value="+ height: int" style="text;strokeColor=none;fillColor=none;align=left;verticalAlign=top;spacingLeft=4;spacingRight=4;overflow=hidden;rotatable=0;points=[[0,0.5],[1,0.5]];portConstraint=eastwest;whiteSpace=wrap;html=1;" vertex="1" parent="2ie_r9YeU4_pC4aYm68A-324">
          <mxGeometry y="78" width="320" height="26" as="geometry" />
        </mxCell>
        <mxCell id="2ie_r9YeU4_pC4aYm68A-338" value="+ width: int" style="text;strokeColor=none;fillColor=none;align=left;verticalAlign=top;spacingLeft=4;spacingRight=4;overflow=hidden;rotatable=0;points=[[0,0.5],[1,0.5]];portConstraint=eastwest;whiteSpace=wrap;html=1;" vertex="1" parent="2ie_r9YeU4_pC4aYm68A-324">
          <mxGeometry y="104" width="320" height="26" as="geometry" />
        </mxCell>
        <mxCell id="2ie_r9YeU4_pC4aYm68A-337" value="+ bound_nodes_list: list" style="text;strokeColor=none;fillColor=none;align=left;verticalAlign=top;spacingLeft=4;spacingRight=4;overflow=hidden;rotatable=0;points=[[0,0.5],[1,0.5]];portConstraint=eastwest;whiteSpace=wrap;html=1;" vertex="1" parent="2ie_r9YeU4_pC4aYm68A-324">
          <mxGeometry y="130" width="320" height="26" as="geometry" />
        </mxCell>
        <mxCell id="2ie_r9YeU4_pC4aYm68A-336" value="+ force_nodes_list: list" style="text;strokeColor=none;fillColor=none;align=left;verticalAlign=top;spacingLeft=4;spacingRight=4;overflow=hidden;rotatable=0;points=[[0,0.5],[1,0.5]];portConstraint=eastwest;whiteSpace=wrap;html=1;" vertex="1" parent="2ie_r9YeU4_pC4aYm68A-324">
          <mxGeometry y="156" width="320" height="26" as="geometry" />
        </mxCell>
        <mxCell id="2ie_r9YeU4_pC4aYm68A-335" value="+ initial_compliance: float" style="text;strokeColor=none;fillColor=none;align=left;verticalAlign=top;spacingLeft=4;spacingRight=4;overflow=hidden;rotatable=0;points=[[0,0.5],[1,0.5]];portConstraint=eastwest;whiteSpace=wrap;html=1;" vertex="1" parent="2ie_r9YeU4_pC4aYm68A-324">
          <mxGeometry y="182" width="320" height="26" as="geometry" />
        </mxCell>
        <mxCell id="2ie_r9YeU4_pC4aYm68A-334" value="+ design_space: numpy.ndaray [height, width, 4]" style="text;strokeColor=none;fillColor=none;align=left;verticalAlign=top;spacingLeft=4;spacingRight=4;overflow=hidden;rotatable=0;points=[[0,0.5],[1,0.5]];portConstraint=eastwest;whiteSpace=wrap;html=1;" vertex="1" parent="2ie_r9YeU4_pC4aYm68A-324">
          <mxGeometry y="208" width="320" height="32" as="geometry" />
        </mxCell>
        <mxCell id="2ie_r9YeU4_pC4aYm68A-333" value="+ action_space: gym.spaces.Discrete(number_of_nodes)" style="text;strokeColor=none;fillColor=none;align=left;verticalAlign=top;spacingLeft=4;spacingRight=4;overflow=hidden;rotatable=0;points=[[0,0.5],[1,0.5]];portConstraint=eastwest;whiteSpace=wrap;html=1;" vertex="1" parent="2ie_r9YeU4_pC4aYm68A-324">
          <mxGeometry y="240" width="320" height="36" as="geometry" />
        </mxCell>
        <mxCell id="2ie_r9YeU4_pC4aYm68A-332" value="+ observation_space: gym.spaces.Box" style="text;strokeColor=none;fillColor=none;align=left;verticalAlign=top;spacingLeft=4;spacingRight=4;overflow=hidden;rotatable=0;points=[[0,0.5],[1,0.5]];portConstraint=eastwest;whiteSpace=wrap;html=1;" vertex="1" parent="2ie_r9YeU4_pC4aYm68A-324">
          <mxGeometry y="276" width="320" height="30" as="geometry" />
        </mxCell>
        <mxCell id="2ie_r9YeU4_pC4aYm68A-331" value="+ _action_to_coordinates: dict" style="text;strokeColor=none;fillColor=none;align=left;verticalAlign=top;spacingLeft=4;spacingRight=4;overflow=hidden;rotatable=0;points=[[0,0.5],[1,0.5]];portConstraint=eastwest;whiteSpace=wrap;html=1;" vertex="1" parent="2ie_r9YeU4_pC4aYm68A-324">
          <mxGeometry y="306" width="320" height="34" as="geometry" />
        </mxCell>
        <mxCell id="2ie_r9YeU4_pC4aYm68A-330" value="+ reward: float" style="text;strokeColor=none;fillColor=none;align=left;verticalAlign=top;spacingLeft=4;spacingRight=4;overflow=hidden;rotatable=0;points=[[0,0.5],[1,0.5]];portConstraint=eastwest;whiteSpace=wrap;html=1;" vertex="1" parent="2ie_r9YeU4_pC4aYm68A-324">
          <mxGeometry y="340" width="320" height="38" as="geometry" />
        </mxCell>
        <mxCell id="2ie_r9YeU4_pC4aYm68A-329" value="+ step_count: int" style="text;strokeColor=none;fillColor=none;align=left;verticalAlign=top;spacingLeft=4;spacingRight=4;overflow=hidden;rotatable=0;points=[[0,0.5],[1,0.5]];portConstraint=eastwest;whiteSpace=wrap;html=1;" vertex="1" parent="2ie_r9YeU4_pC4aYm68A-324">
          <mxGeometry y="378" width="320" height="32" as="geometry" />
        </mxCell>
        <mxCell id="2ie_r9YeU4_pC4aYm68A-328" value="+ performed_actions: list" style="text;strokeColor=none;fillColor=none;align=left;verticalAlign=top;spacingLeft=4;spacingRight=4;overflow=hidden;rotatable=0;points=[[0,0.5],[1,0.5]];portConstraint=eastwest;whiteSpace=wrap;html=1;" vertex="1" parent="2ie_r9YeU4_pC4aYm68A-324">
          <mxGeometry y="410" width="320" height="36" as="geometry" />
        </mxCell>
        <mxCell id="2ie_r9YeU4_pC4aYm68A-355" value="+ compliance: float" style="text;strokeColor=none;fillColor=none;align=left;verticalAlign=top;spacingLeft=4;spacingRight=4;overflow=hidden;rotatable=0;points=[[0,0.5],[1,0.5]];portConstraint=eastwest;whiteSpace=wrap;html=1;" vertex="1" parent="2ie_r9YeU4_pC4aYm68A-324">
          <mxGeometry y="446" width="320" height="30" as="geometry" />
        </mxCell>
        <mxCell id="2ie_r9YeU4_pC4aYm68A-357" value="+ last_compliance: float" style="text;strokeColor=none;fillColor=none;align=left;verticalAlign=top;spacingLeft=4;spacingRight=4;overflow=hidden;rotatable=0;points=[[0,0.5],[1,0.5]];portConstraint=eastwest;whiteSpace=wrap;html=1;" vertex="1" parent="2ie_r9YeU4_pC4aYm68A-324">
          <mxGeometry y="476" width="320" height="34" as="geometry" />
        </mxCell>
        <mxCell id="2ie_r9YeU4_pC4aYm68A-349" value="+ freedofs: numpy.ndarray" style="text;strokeColor=none;fillColor=none;align=left;verticalAlign=top;spacingLeft=4;spacingRight=4;overflow=hidden;rotatable=0;points=[[0,0.5],[1,0.5]];portConstraint=eastwest;whiteSpace=wrap;html=1;" vertex="1" parent="2ie_r9YeU4_pC4aYm68A-324">
          <mxGeometry y="510" width="320" height="28" as="geometry" />
        </mxCell>
        <mxCell id="2ie_r9YeU4_pC4aYm68A-348" value="+ fixdofs: numpy.ndarray" style="text;strokeColor=none;fillColor=none;align=left;verticalAlign=top;spacingLeft=4;spacingRight=4;overflow=hidden;rotatable=0;points=[[0,0.5],[1,0.5]];portConstraint=eastwest;whiteSpace=wrap;html=1;" vertex="1" parent="2ie_r9YeU4_pC4aYm68A-324">
          <mxGeometry y="538" width="320" height="32" as="geometry" />
        </mxCell>
        <mxCell id="2ie_r9YeU4_pC4aYm68A-347" value="+ forces: numpy.ndarray" style="text;strokeColor=none;fillColor=none;align=left;verticalAlign=top;spacingLeft=4;spacingRight=4;overflow=hidden;rotatable=0;points=[[0,0.5],[1,0.5]];portConstraint=eastwest;whiteSpace=wrap;html=1;" vertex="1" parent="2ie_r9YeU4_pC4aYm68A-324">
          <mxGeometry y="570" width="320" height="36" as="geometry" />
        </mxCell>
        <mxCell id="2ie_r9YeU4_pC4aYm68A-341" value="" style="endArrow=none;dashed=1;html=1;dashPattern=1 3;strokeWidth=2;rounded=0;entryX=0.5;entryY=1;entryDx=0;entryDy=0;exitX=0.5;exitY=0;exitDx=0;exitDy=0;endFill=0;startArrow=classic;startFill=1;" edge="1" parent="WIyWlLk6GJQsqaUBKTNV-1" source="2ie_r9YeU4_pC4aYm68A-84" target="2ie_r9YeU4_pC4aYm68A-43">
          <mxGeometry width="50" height="50" relative="1" as="geometry">
            <mxPoint x="810" y="260" as="sourcePoint" />
            <mxPoint x="860" y="210" as="targetPoint" />
          </mxGeometry>
        </mxCell>
        <mxCell id="2ie_r9YeU4_pC4aYm68A-343" value="" style="endArrow=baseDash;dashed=1;html=1;dashPattern=1 3;strokeWidth=2;rounded=0;exitX=0.5;exitY=0;exitDx=0;exitDy=0;endFill=0;entryX=0.99;entryY=0.983;entryDx=0;entryDy=0;entryPerimeter=0;" edge="1" parent="WIyWlLk6GJQsqaUBKTNV-1" source="2ie_r9YeU4_pC4aYm68A-324" target="2ie_r9YeU4_pC4aYm68A-242">
          <mxGeometry width="50" height="50" relative="1" as="geometry">
            <mxPoint x="740" y="400" as="sourcePoint" />
            <mxPoint x="810" y="350" as="targetPoint" />
          </mxGeometry>
        </mxCell>
        <mxCell id="2ie_r9YeU4_pC4aYm68A-345" style="edgeStyle=orthogonalEdgeStyle;rounded=0;orthogonalLoop=1;jettySize=auto;html=1;entryX=0.002;entryY=0.113;entryDx=0;entryDy=0;entryPerimeter=0;startArrow=classic;startFill=1;dashed=1;dashPattern=1 4;strokeWidth=2;" edge="1" parent="WIyWlLk6GJQsqaUBKTNV-1" source="2ie_r9YeU4_pC4aYm68A-41" target="2ie_r9YeU4_pC4aYm68A-289">
          <mxGeometry relative="1" as="geometry" />
        </mxCell>
        <mxCell id="2ie_r9YeU4_pC4aYm68A-365" value="" style="edgeStyle=orthogonalEdgeStyle;rounded=0;orthogonalLoop=1;jettySize=auto;html=1;" edge="1" parent="WIyWlLk6GJQsqaUBKTNV-1" source="2ie_r9YeU4_pC4aYm68A-353" target="2ie_r9YeU4_pC4aYm68A-363">
          <mxGeometry relative="1" as="geometry" />
        </mxCell>
        <mxCell id="2ie_r9YeU4_pC4aYm68A-375" style="edgeStyle=orthogonalEdgeStyle;rounded=0;orthogonalLoop=1;jettySize=auto;html=1;entryX=0;entryY=0.5;entryDx=0;entryDy=0;exitX=0;exitY=0.5;exitDx=0;exitDy=0;dashed=1;strokeWidth=2;" edge="1" parent="WIyWlLk6GJQsqaUBKTNV-1" source="2ie_r9YeU4_pC4aYm68A-353" target="2ie_r9YeU4_pC4aYm68A-363">
          <mxGeometry relative="1" as="geometry">
            <Array as="points">
              <mxPoint x="100" y="559" />
              <mxPoint x="100" y="635" />
            </Array>
          </mxGeometry>
        </mxCell>
        <mxCell id="2ie_r9YeU4_pC4aYm68A-353" value="get_compliance_per_element(design_space[design], freedofs, fixdofs, forces)" style="rounded=0;whiteSpace=wrap;html=1;" vertex="1" parent="WIyWlLk6GJQsqaUBKTNV-1">
          <mxGeometry x="119.99999999999999" y="539" width="480" height="41" as="geometry" />
        </mxCell>
        <mxCell id="2ie_r9YeU4_pC4aYm68A-362" value="" style="edgeStyle=orthogonalEdgeStyle;rounded=0;orthogonalLoop=1;jettySize=auto;html=1;" edge="1" parent="WIyWlLk6GJQsqaUBKTNV-1" source="2ie_r9YeU4_pC4aYm68A-354" target="2ie_r9YeU4_pC4aYm68A-353">
          <mxGeometry relative="1" as="geometry" />
        </mxCell>
        <mxCell id="2ie_r9YeU4_pC4aYm68A-354" value="=&amp;nbsp; compliance" style="rounded=0;whiteSpace=wrap;html=1;" vertex="1" parent="WIyWlLk6GJQsqaUBKTNV-1">
          <mxGeometry x="119.99999999999999" y="470" width="480" height="30" as="geometry" />
        </mxCell>
        <mxCell id="2ie_r9YeU4_pC4aYm68A-371" value="" style="edgeStyle=orthogonalEdgeStyle;rounded=0;orthogonalLoop=1;jettySize=auto;html=1;" edge="1" parent="WIyWlLk6GJQsqaUBKTNV-1" source="2ie_r9YeU4_pC4aYm68A-363" target="2ie_r9YeU4_pC4aYm68A-370">
          <mxGeometry relative="1" as="geometry" />
        </mxCell>
        <mxCell id="2ie_r9YeU4_pC4aYm68A-363" value="=&amp;nbsp; design_space[compliance]" style="rounded=0;whiteSpace=wrap;html=1;" vertex="1" parent="WIyWlLk6GJQsqaUBKTNV-1">
          <mxGeometry x="119.99999999999999" y="620" width="480" height="30" as="geometry" />
        </mxCell>
        <mxCell id="2ie_r9YeU4_pC4aYm68A-366" value="" style="endArrow=none;dashed=1;html=1;dashPattern=1 3;strokeWidth=2;rounded=0;exitX=1;exitY=0.5;exitDx=0;exitDy=0;entryX=0.003;entryY=0.034;entryDx=0;entryDy=0;entryPerimeter=0;startArrow=classic;startFill=1;" edge="1" parent="WIyWlLk6GJQsqaUBKTNV-1" source="2ie_r9YeU4_pC4aYm68A-318" target="2ie_r9YeU4_pC4aYm68A-324">
          <mxGeometry width="50" height="50" relative="1" as="geometry">
            <mxPoint x="600" y="460" as="sourcePoint" />
            <mxPoint x="650" y="410" as="targetPoint" />
          </mxGeometry>
        </mxCell>
        <mxCell id="2ie_r9YeU4_pC4aYm68A-367" value="" style="endArrow=classic;dashed=1;html=1;dashPattern=1 3;strokeWidth=2;rounded=0;exitX=1;exitY=0.5;exitDx=0;exitDy=0;entryX=-0.011;entryY=0.297;entryDx=0;entryDy=0;entryPerimeter=0;endFill=1;" edge="1" parent="WIyWlLk6GJQsqaUBKTNV-1" source="2ie_r9YeU4_pC4aYm68A-354" target="2ie_r9YeU4_pC4aYm68A-327">
          <mxGeometry width="50" height="50" relative="1" as="geometry">
            <mxPoint x="600" y="530" as="sourcePoint" />
            <mxPoint x="650" y="480.00000000000006" as="targetPoint" />
          </mxGeometry>
        </mxCell>
        <mxCell id="2ie_r9YeU4_pC4aYm68A-368" value="" style="endArrow=none;dashed=1;html=1;dashPattern=1 3;strokeWidth=2;rounded=0;exitX=1;exitY=0.5;exitDx=0;exitDy=0;entryX=-0.011;entryY=0.154;entryDx=0;entryDy=0;entryPerimeter=0;startArrow=classic;startFill=1;" edge="1" parent="WIyWlLk6GJQsqaUBKTNV-1" source="2ie_r9YeU4_pC4aYm68A-353" target="2ie_r9YeU4_pC4aYm68A-336">
          <mxGeometry width="50" height="50" relative="1" as="geometry">
            <mxPoint x="610" y="610" as="sourcePoint" />
            <mxPoint x="660" y="560" as="targetPoint" />
          </mxGeometry>
        </mxCell>
        <mxCell id="2ie_r9YeU4_pC4aYm68A-369" value="" style="endArrow=classic;dashed=1;html=1;dashPattern=1 3;strokeWidth=2;rounded=0;exitX=1;exitY=0.5;exitDx=0;exitDy=0;entryX=-0.009;entryY=0.843;entryDx=0;entryDy=0;entryPerimeter=0;endFill=1;" edge="1" parent="WIyWlLk6GJQsqaUBKTNV-1" source="2ie_r9YeU4_pC4aYm68A-363" target="2ie_r9YeU4_pC4aYm68A-334">
          <mxGeometry width="50" height="50" relative="1" as="geometry">
            <mxPoint x="590" y="690" as="sourcePoint" />
            <mxPoint x="640" y="640" as="targetPoint" />
          </mxGeometry>
        </mxCell>
        <mxCell id="2ie_r9YeU4_pC4aYm68A-379" style="edgeStyle=orthogonalEdgeStyle;rounded=0;orthogonalLoop=1;jettySize=auto;html=1;entryX=0;entryY=0.5;entryDx=0;entryDy=0;exitX=0;exitY=0.5;exitDx=0;exitDy=0;dashed=1;strokeWidth=2;" edge="1" parent="WIyWlLk6GJQsqaUBKTNV-1" source="2ie_r9YeU4_pC4aYm68A-370" target="2ie_r9YeU4_pC4aYm68A-377">
          <mxGeometry relative="1" as="geometry">
            <Array as="points">
              <mxPoint x="100" y="708" />
              <mxPoint x="100" y="775" />
            </Array>
          </mxGeometry>
        </mxCell>
        <mxCell id="2ie_r9YeU4_pC4aYm68A-380" value="" style="edgeStyle=orthogonalEdgeStyle;rounded=0;orthogonalLoop=1;jettySize=auto;html=1;" edge="1" parent="WIyWlLk6GJQsqaUBKTNV-1" source="2ie_r9YeU4_pC4aYm68A-370" target="2ie_r9YeU4_pC4aYm68A-377">
          <mxGeometry relative="1" as="geometry" />
        </mxCell>
        <mxCell id="2ie_r9YeU4_pC4aYm68A-370" value="constraint_function(design_space[design]" style="rounded=0;whiteSpace=wrap;html=1;" vertex="1" parent="WIyWlLk6GJQsqaUBKTNV-1">
          <mxGeometry x="119.99999999999999" y="690" width="480" height="36" as="geometry" />
        </mxCell>
        <mxCell id="2ie_r9YeU4_pC4aYm68A-376" value="" style="endArrow=none;dashed=1;html=1;dashPattern=1 3;strokeWidth=2;rounded=0;entryX=-0.011;entryY=0.183;entryDx=0;entryDy=0;entryPerimeter=0;exitX=1.011;exitY=0.619;exitDx=0;exitDy=0;exitPerimeter=0;endFill=0;startArrow=classic;startFill=1;" edge="1" parent="WIyWlLk6GJQsqaUBKTNV-1" source="2ie_r9YeU4_pC4aYm68A-370" target="2ie_r9YeU4_pC4aYm68A-331">
          <mxGeometry width="50" height="50" relative="1" as="geometry">
            <mxPoint x="610" y="760" as="sourcePoint" />
            <mxPoint x="660" y="710" as="targetPoint" />
          </mxGeometry>
        </mxCell>
        <mxCell id="2ie_r9YeU4_pC4aYm68A-385" value="" style="edgeStyle=orthogonalEdgeStyle;rounded=0;orthogonalLoop=1;jettySize=auto;html=1;" edge="1" parent="WIyWlLk6GJQsqaUBKTNV-1" source="2ie_r9YeU4_pC4aYm68A-377" target="2ie_r9YeU4_pC4aYm68A-384">
          <mxGeometry relative="1" as="geometry" />
        </mxCell>
        <mxCell id="2ie_r9YeU4_pC4aYm68A-377" value="= constraint" style="rounded=0;whiteSpace=wrap;html=1;" vertex="1" parent="WIyWlLk6GJQsqaUBKTNV-1">
          <mxGeometry x="119.99999999999999" y="760" width="480" height="30" as="geometry" />
        </mxCell>
        <mxCell id="2ie_r9YeU4_pC4aYm68A-378" value="" style="endArrow=classic;dashed=1;html=1;dashPattern=1 3;strokeWidth=2;rounded=0;exitX=1;exitY=0.5;exitDx=0;exitDy=0;entryX=0.001;entryY=0.903;entryDx=0;entryDy=0;entryPerimeter=0;endFill=1;" edge="1" parent="WIyWlLk6GJQsqaUBKTNV-1" source="2ie_r9YeU4_pC4aYm68A-377" target="2ie_r9YeU4_pC4aYm68A-330">
          <mxGeometry width="50" height="50" relative="1" as="geometry">
            <mxPoint x="610" y="820" as="sourcePoint" />
            <mxPoint x="660" y="770" as="targetPoint" />
          </mxGeometry>
        </mxCell>
        <mxCell id="2ie_r9YeU4_pC4aYm68A-381" style="edgeStyle=orthogonalEdgeStyle;rounded=0;orthogonalLoop=1;jettySize=auto;html=1;entryX=0;entryY=0.5;entryDx=0;entryDy=0;exitX=0;exitY=0.5;exitDx=0;exitDy=0;dashed=1;strokeWidth=2;" edge="1" parent="WIyWlLk6GJQsqaUBKTNV-1" source="2ie_r9YeU4_pC4aYm68A-383" target="2ie_r9YeU4_pC4aYm68A-384">
          <mxGeometry relative="1" as="geometry">
            <Array as="points">
              <mxPoint x="100" y="838" />
              <mxPoint x="100" y="895" />
            </Array>
          </mxGeometry>
        </mxCell>
        <mxCell id="2ie_r9YeU4_pC4aYm68A-382" value="" style="edgeStyle=orthogonalEdgeStyle;rounded=0;orthogonalLoop=1;jettySize=auto;html=1;" edge="1" parent="WIyWlLk6GJQsqaUBKTNV-1" source="2ie_r9YeU4_pC4aYm68A-383" target="2ie_r9YeU4_pC4aYm68A-384">
          <mxGeometry relative="1" as="geometry" />
        </mxCell>
        <mxCell id="2ie_r9YeU4_pC4aYm68A-383" value="reward_function(design_space[design], compliance, initial_compliance, last_compliance)" style="rounded=0;whiteSpace=wrap;html=1;" vertex="1" parent="WIyWlLk6GJQsqaUBKTNV-1">
          <mxGeometry x="119.99999999999999" y="820" width="480" height="36" as="geometry" />
        </mxCell>
        <mxCell id="2ie_r9YeU4_pC4aYm68A-391" value="" style="edgeStyle=orthogonalEdgeStyle;rounded=0;orthogonalLoop=1;jettySize=auto;html=1;" edge="1" parent="WIyWlLk6GJQsqaUBKTNV-1" source="2ie_r9YeU4_pC4aYm68A-384" target="2ie_r9YeU4_pC4aYm68A-388">
          <mxGeometry relative="1" as="geometry" />
        </mxCell>
        <mxCell id="2ie_r9YeU4_pC4aYm68A-384" value="= reward" style="rounded=0;whiteSpace=wrap;html=1;" vertex="1" parent="WIyWlLk6GJQsqaUBKTNV-1">
          <mxGeometry x="119.99999999999999" y="880" width="480" height="30" as="geometry" />
        </mxCell>
        <mxCell id="2ie_r9YeU4_pC4aYm68A-386" value="" style="endArrow=none;dashed=1;html=1;dashPattern=1 3;strokeWidth=2;rounded=0;exitX=1;exitY=0.5;exitDx=0;exitDy=0;entryX=-0.004;entryY=0.784;entryDx=0;entryDy=0;entryPerimeter=0;endFill=0;startArrow=classic;startFill=1;" edge="1" parent="WIyWlLk6GJQsqaUBKTNV-1" source="2ie_r9YeU4_pC4aYm68A-383" target="2ie_r9YeU4_pC4aYm68A-328">
          <mxGeometry width="50" height="50" relative="1" as="geometry">
            <mxPoint x="630" y="880" as="sourcePoint" />
            <mxPoint x="680" y="830" as="targetPoint" />
          </mxGeometry>
        </mxCell>
        <mxCell id="2ie_r9YeU4_pC4aYm68A-387" value="" style="endArrow=classic;dashed=1;html=1;dashPattern=1 3;strokeWidth=2;rounded=0;entryX=-0.003;entryY=0.604;entryDx=0;entryDy=0;entryPerimeter=0;exitX=1;exitY=0.5;exitDx=0;exitDy=0;endFill=1;" edge="1" parent="WIyWlLk6GJQsqaUBKTNV-1" source="2ie_r9YeU4_pC4aYm68A-384" target="2ie_r9YeU4_pC4aYm68A-357">
          <mxGeometry width="50" height="50" relative="1" as="geometry">
            <mxPoint x="630" y="950" as="sourcePoint" />
            <mxPoint x="680" y="900" as="targetPoint" />
          </mxGeometry>
        </mxCell>
        <mxCell id="2ie_r9YeU4_pC4aYm68A-394" value="" style="edgeStyle=orthogonalEdgeStyle;rounded=0;orthogonalLoop=1;jettySize=auto;html=1;entryX=0.5;entryY=0;entryDx=0;entryDy=0;" edge="1" parent="WIyWlLk6GJQsqaUBKTNV-1" source="2ie_r9YeU4_pC4aYm68A-388" target="2ie_r9YeU4_pC4aYm68A-393">
          <mxGeometry relative="1" as="geometry" />
        </mxCell>
        <mxCell id="2ie_r9YeU4_pC4aYm68A-388" value="performed_actions.append(action)" style="rounded=0;whiteSpace=wrap;html=1;" vertex="1" parent="WIyWlLk6GJQsqaUBKTNV-1">
          <mxGeometry x="119.99999999999999" y="930" width="480" height="30" as="geometry" />
        </mxCell>
        <mxCell id="2ie_r9YeU4_pC4aYm68A-390" value="" style="endArrow=classic;dashed=1;html=1;dashPattern=1 3;strokeWidth=2;rounded=0;entryX=0.006;entryY=0.221;entryDx=0;entryDy=0;exitX=1;exitY=0.5;exitDx=0;exitDy=0;endFill=1;entryPerimeter=0;" edge="1" parent="WIyWlLk6GJQsqaUBKTNV-1" source="2ie_r9YeU4_pC4aYm68A-388" target="2ie_r9YeU4_pC4aYm68A-348">
          <mxGeometry width="50" height="50" relative="1" as="geometry">
            <mxPoint x="610" y="915" as="sourcePoint" />
            <mxPoint x="677" y="916" as="targetPoint" />
          </mxGeometry>
        </mxCell>
        <mxCell id="2ie_r9YeU4_pC4aYm68A-401" style="edgeStyle=orthogonalEdgeStyle;rounded=0;orthogonalLoop=1;jettySize=auto;html=1;entryX=1;entryY=0.5;entryDx=0;entryDy=0;" edge="1" parent="WIyWlLk6GJQsqaUBKTNV-1" source="2ie_r9YeU4_pC4aYm68A-393" target="2ie_r9YeU4_pC4aYm68A-395">
          <mxGeometry relative="1" as="geometry" />
        </mxCell>
        <mxCell id="2ie_r9YeU4_pC4aYm68A-402" value="yes" style="edgeLabel;html=1;align=center;verticalAlign=middle;resizable=0;points=[];" vertex="1" connectable="0" parent="2ie_r9YeU4_pC4aYm68A-401">
          <mxGeometry x="-0.8044" y="1" relative="1" as="geometry">
            <mxPoint as="offset" />
          </mxGeometry>
        </mxCell>
        <mxCell id="2ie_r9YeU4_pC4aYm68A-403" value="" style="edgeStyle=orthogonalEdgeStyle;rounded=0;orthogonalLoop=1;jettySize=auto;html=1;entryX=0.5;entryY=0;entryDx=0;entryDy=0;" edge="1" parent="WIyWlLk6GJQsqaUBKTNV-1" source="2ie_r9YeU4_pC4aYm68A-393" target="2ie_r9YeU4_pC4aYm68A-407">
          <mxGeometry relative="1" as="geometry">
            <mxPoint x="360.0526315789475" y="1130" as="targetPoint" />
          </mxGeometry>
        </mxCell>
        <mxCell id="2ie_r9YeU4_pC4aYm68A-404" value="no" style="edgeLabel;html=1;align=center;verticalAlign=middle;resizable=0;points=[];" vertex="1" connectable="0" parent="2ie_r9YeU4_pC4aYm68A-403">
          <mxGeometry x="-0.1418" y="1" relative="1" as="geometry">
            <mxPoint as="offset" />
          </mxGeometry>
        </mxCell>
        <mxCell id="2ie_r9YeU4_pC4aYm68A-393" value="is mode ==&quot;eval&quot;&lt;div&gt;and constraint &amp;lt; threshold&lt;/div&gt;" style="rhombus;whiteSpace=wrap;html=1;" vertex="1" parent="WIyWlLk6GJQsqaUBKTNV-1">
          <mxGeometry x="273.75" y="980" width="172.5" height="110" as="geometry" />
        </mxCell>
        <mxCell id="2ie_r9YeU4_pC4aYm68A-408" style="edgeStyle=orthogonalEdgeStyle;rounded=0;orthogonalLoop=1;jettySize=auto;html=1;entryX=0;entryY=0.5;entryDx=0;entryDy=0;" edge="1" parent="WIyWlLk6GJQsqaUBKTNV-1" source="2ie_r9YeU4_pC4aYm68A-395" target="2ie_r9YeU4_pC4aYm68A-407">
          <mxGeometry relative="1" as="geometry" />
        </mxCell>
        <mxCell id="2ie_r9YeU4_pC4aYm68A-395" value="terminate the Episode" style="rounded=0;whiteSpace=wrap;html=1;" vertex="1" parent="WIyWlLk6GJQsqaUBKTNV-1">
          <mxGeometry y="1018" width="140" height="34" as="geometry" />
        </mxCell>
        <mxCell id="2ie_r9YeU4_pC4aYm68A-407" value="return: design_space, reward, terminated, False, get_info" style="rounded=1;whiteSpace=wrap;html=1;" vertex="1" parent="WIyWlLk6GJQsqaUBKTNV-1">
          <mxGeometry x="120" y="1139" width="480" height="30" as="geometry" />
        </mxCell>
        <mxCell id="2ie_r9YeU4_pC4aYm68A-409" value="" style="endArrow=none;dashed=1;html=1;dashPattern=1 3;strokeWidth=2;rounded=0;entryX=0.093;entryY=1.037;entryDx=0;entryDy=0;entryPerimeter=0;exitX=1;exitY=0.5;exitDx=0;exitDy=0;startArrow=classic;startFill=1;" edge="1" parent="WIyWlLk6GJQsqaUBKTNV-1" source="2ie_r9YeU4_pC4aYm68A-407" target="2ie_r9YeU4_pC4aYm68A-347">
          <mxGeometry width="50" height="50" relative="1" as="geometry">
            <mxPoint x="700" y="1150" as="sourcePoint" />
            <mxPoint x="730" y="1050" as="targetPoint" />
            <Array as="points">
              <mxPoint x="700" y="1154" />
            </Array>
          </mxGeometry>
        </mxCell>
      </root>
    </mxGraphModel>
  </diagram>
</mxfile>
